<svg width="55" height="29" viewBox="0 0 55 29" fill="none" xmlns="http://www.w3.org/2000/svg">
    <g clip-path="url(#clip0_571_880)">
        <path d="M54.9963 13.7674C54.9963 22.182 43.891 29 30.1924 29C29.1396 29 28.1027 28.9606 27.082 28.8819C26.7798 28.8579 26.6742 28.1436 26.9263 27.8298C27.1784 27.516 27.4064 27.2447 27.6399 26.9531C29.3129 24.8796 30.8633 22.7109 32.2834 20.4581C32.3019 20.4229 32.3282 20.3923 32.3603 20.3687C32.3924 20.345 32.4295 20.3289 32.4687 20.3215C42.5767 19.2695 50.0785 15.3381 50.0785 10.6519C50.0785 5.15725 39.7647 0.705413 27.0449 0.705413C22.3036 0.651772 17.5833 1.34127 13.0572 2.7486C12.8329 2.82245 12.6105 2.89811 12.3917 2.97562C7.38684 4.59245 4.06323 7.36654 4.01503 10.5208V10.65C4.05175 11.9067 4.53899 13.1088 5.38859 14.0387L5.47757 14.1421C5.53689 14.2122 5.5962 14.2787 5.66293 14.3451L5.75747 14.4466C5.7964 14.4872 5.83533 14.5297 5.87796 14.5703C5.92059 14.6109 5.92801 14.622 5.95396 14.646C6.06333 14.7567 6.17825 14.8619 6.29874 14.969L6.41367 15.0705C6.54713 15.1886 6.68617 15.3012 6.83074 15.4156L7.04762 15.5817L7.21075 15.7035C7.26821 15.746 7.32938 15.7903 7.39611 15.8309C9.67166 17.3115 12.2093 18.3475 14.8738 18.8837C15.1209 18.9415 15.373 18.995 15.6301 19.0443C17.9384 19.497 20.2861 19.7215 22.6388 19.7142C25.8072 19.7349 28.9633 19.3174 32.0164 18.4739C32.3242 18.3872 32.5021 19.0959 32.2667 19.4706C32.0813 19.7789 31.8774 20.0871 31.6735 20.3935C30.2033 22.6342 28.6079 24.7909 26.8948 26.8534C26.875 26.8816 26.849 26.9049 26.8188 26.9215C26.7886 26.9382 26.755 26.9477 26.7205 26.9494C22.3098 26.9164 17.9227 26.3045 13.6726 25.1295C12.8619 24.897 12.0785 24.646 11.3222 24.3765C11.1257 24.3064 10.931 24.2344 10.7383 24.1605C4.2041 21.6965 0 17.8261 0 13.4758C0 8.00699 6.64538 3.29861 16.1973 1.18897C19.9119 0.384942 23.7033 -0.0136215 27.5046 0.000339118C41.6203 0.000339118 53.2501 5.2089 54.8239 11.9199C54.9329 12.4746 54.9919 13.0379 55 13.6032C54.9963 13.6604 54.9963 13.7157 54.9963 13.7674Z"
              fill="#2ADBCC"/>
    </g>
    <defs>
        <clipPath id="clip0_571_880">
            <rect width="55" height="29" fill="white"/>
        </clipPath>
    </defs>
</svg>
